<svg width="40" height="40" viewBox="0 0 40 40" fill="current" xmlns="http://www.w3.org/2000/svg">
<path d="M26.6672 21.6663C27.5876 21.6663 28.3338 22.4125 28.3338 23.333C28.3338 27.949 27.2273 32.408 25.1422 36.4088C24.9343 36.7946 24.451 36.9356 24.0683 36.7222L23.298 36.2928C22.4998 35.8478 22.2188 34.842 22.6099 34.016C24.0686 30.9352 24.8853 27.5733 24.9892 24.0928L25.0005 23.333C25.0005 22.4125 25.7467 21.6663 26.6672 21.6663ZM18.3338 18.333C18.3338 17.4125 19.08 16.6663 20.0005 16.6663C20.921 16.6663 21.6672 17.4125 21.6672 18.333V23.333L21.658 23.9642C21.5255 28.5822 19.9408 32.9548 17.173 36.5463C16.9614 36.813 16.5726 36.855 16.309 36.6396L15.4884 35.9693C14.7806 35.3911 14.6825 34.3523 15.195 33.5955C17.1127 30.7635 18.2093 27.4402 18.3238 23.9435L18.3338 23.333V18.333ZM20.0005 9.99967C24.0358 9.99967 27.4013 12.868 28.1693 16.677C28.3512 17.5793 27.5876 18.333 26.6672 18.333C25.7467 18.333 25.0277 17.5663 24.7265 16.6965C24.0487 14.7388 22.1887 13.333 20.0005 13.333C17.239 13.333 15.0004 15.5716 15.0004 18.333V23.333C15.0004 27.0587 13.6343 30.5737 11.2155 33.2943C11.0217 33.5049 10.6929 33.5157 10.4857 33.3183L9.6457 32.5182C8.98492 31.8888 8.97082 30.8486 9.50144 30.1061C10.8006 28.2882 11.5589 26.1248 11.6563 23.8375L11.6671 23.333V18.333C11.6671 13.7306 15.398 9.99967 20.0005 9.99967ZM20.0005 3.33301C28.2847 3.33301 35.0005 10.0487 35.0005 18.333V23.333C35.0005 26.1628 34.6642 28.9495 34.0058 31.6502C33.8786 32.1436 33.3724 32.4377 32.8807 32.3039L32.1556 32.1065C31.2733 31.8663 30.7573 30.9572 30.9507 30.0636C31.3595 28.1742 31.5956 26.2409 31.6532 24.2803L31.6672 23.333V18.333C31.6672 11.8897 26.4437 6.66634 20.0005 6.66634C17.9057 6.66634 15.94 7.21838 14.2407 8.18491C13.5083 8.60147 12.5711 8.54648 11.9756 7.95051C11.2622 7.23668 11.325 6.05328 12.186 5.5268C14.4618 4.13509 17.1375 3.33301 20.0005 3.33301ZM7.19423 10.5186C7.72066 9.6576 8.90409 9.59481 9.61793 10.3082C10.2139 10.9037 10.2689 11.8409 9.85232 12.5733C8.94773 14.1637 8.40621 15.9874 8.34052 17.9318L8.33268 18.3313L8.33963 21.6663C8.33963 23.2784 8.01133 24.8452 7.38748 26.2892C7.28928 26.5165 7.18376 26.7408 7.07105 26.9617C6.92832 27.2259 6.59605 27.3209 6.33522 27.172L5.34635 26.6074C4.55639 26.1564 4.29972 25.1526 4.58572 24.2891C4.81252 23.6043 4.95008 22.888 4.99232 22.1537L5.0063 21.6663L5.00602 18.333C5.00149 15.47 5.8027 12.7944 7.19423 10.5186Z"/>
</svg>
