<svg width="16" height="16" viewBox="0 0 16 16" fill="current" xmlns="http://www.w3.org/2000/svg" pointer-events="none" >
<path fill-rule="evenodd" clip-rule="evenodd" d="M2.19522 2.1951C2.32025 2.07008 2.48981 1.99984 2.66663 1.99984H8.66663C8.84344 1.99984 9.01301 2.07008 9.13803 2.1951C9.26305 2.32012 9.33329 2.48969 9.33329 2.6665V3.33317C9.33329 3.70136 9.63177 3.99984 9.99996 3.99984C10.3681 3.99984 10.6666 3.70136 10.6666 3.33317V2.6665C10.6666 2.13607 10.4559 1.62736 10.0808 1.25229C9.70577 0.877218 9.19706 0.666504 8.66663 0.666504H2.66663C2.13619 0.666504 1.62749 0.877217 1.25241 1.25229C0.87734 1.62736 0.666626 2.13607 0.666626 2.6665V8.6665C0.666626 9.19694 0.87734 9.70564 1.25241 10.0807C1.62748 10.4558 2.13619 10.6665 2.66663 10.6665H3.33329C3.70148 10.6665 3.99996 10.368 3.99996 9.99984C3.99996 9.63165 3.70148 9.33317 3.33329 9.33317H2.66663C2.48982 9.33317 2.32025 9.26293 2.19522 9.13791C2.0702 9.01288 1.99996 8.84332 1.99996 8.6665V2.6665C1.99996 2.48969 2.0702 2.32012 2.19522 2.1951ZM6.66671 7.3335C6.66671 6.96531 6.96518 6.66683 7.33337 6.66683H13.3334C13.7016 6.66683 14 6.96531 14 7.3335V13.3335C14 13.7017 13.7016 14.0002 13.3334 14.0002H7.33337C6.96518 14.0002 6.66671 13.7017 6.66671 13.3335V7.3335ZM7.33337 5.3335C6.2288 5.3335 5.33337 6.22893 5.33337 7.3335V13.3335C5.33337 14.4381 6.2288 15.3335 7.33337 15.3335H13.3334C14.4379 15.3335 15.3334 14.4381 15.3334 13.3335V7.3335C15.3334 6.22893 14.4379 5.3335 13.3334 5.3335H7.33337Z"/>
</svg>
