<svg width="40" height="40" viewBox="0 0 40 40" fill="none" stroke="currentColor" xmlns="http://www.w3.org/2000/svg">
<circle cx="19.9992" cy="20.0007" r="16.6667" stroke="currentColor" stroke-width="3"/>
<path d="M27.52 13.4413C26.1174 12.8248 24.6178 12.3767 23.05 12.1216C22.8574 12.4486 22.6325 12.8885 22.4774 13.2385C20.8107 13.003 19.1594 13.003 17.5234 13.2385C17.3684 12.8885 17.1382 12.4486 16.944 12.1216C15.3745 12.3767 13.8731 12.8264 12.4706 13.4445C9.6417 17.4608 8.87483 21.3773 9.25827 25.2382C11.1345 26.5546 12.9529 27.3542 14.7405 27.8775C15.1819 27.3068 15.5756 26.7002 15.9147 26.0607C15.2688 25.8301 14.6502 25.5457 14.0657 25.2153C14.2208 25.1074 14.3724 24.9945 14.519 24.8785C18.0841 26.445 21.9576 26.445 25.4801 24.8785C25.6283 24.9945 25.7801 25.1074 25.9334 25.2153C25.3472 25.5472 24.7269 25.8318 24.081 26.0624C24.4201 26.7002 24.8121 27.3085 25.2551 27.8792C27.0445 27.3559 28.8645 26.5562 30.7408 25.2382C31.1908 20.7624 29.9723 16.8819 27.52 13.4413ZM16.4004 22.8638C15.3302 22.8638 14.4525 21.9251 14.4525 20.7821C14.4525 19.639 15.3114 18.6987 16.4004 18.6987C17.4893 18.6987 18.367 19.6373 18.3482 20.7821C18.35 21.9251 17.4893 22.8638 16.4004 22.8638ZM23.5988 22.8638C22.5285 22.8638 21.6509 21.9251 21.6509 20.7821C21.6509 19.639 22.5098 18.6987 23.5988 18.6987C24.6877 18.6987 25.5653 19.6373 25.5466 20.7821C25.5466 21.9251 24.6877 22.8638 23.5988 22.8638Z"/>
</svg>
