<svg width="44" height="45" viewBox="0 0 44 45" fill="current" xmlns="http://www.w3.org/2000/svg">
<path fill-rule="evenodd" clip-rule="evenodd" d="M35.2307 13.1201L24.1388 22.1398C22.9604 23.098 21.0499 23.098 19.8716 22.1398L8.77233 13.1142C8.59821 13.455 8.5 13.841 8.5 14.25V30.75C8.5 32.1307 9.61929 33.25 11 33.25H33C34.3807 33.25 35.5 32.1307 35.5 30.75V14.25C35.5 13.8434 35.4029 13.4595 35.2307 13.1201ZM8.68638 9.25884L8.68618 9.25867C7.76392 9.68693 6.98025 10.3633 6.42089 11.202L6.42102 11.2021C5.83917 12.0746 5.5 13.1227 5.5 14.25V30.75C5.5 33.7876 7.96243 36.25 11 36.25H33C36.0376 36.25 38.5 33.7876 38.5 30.75V14.25C38.5 13.125 38.1622 12.0789 37.5826 11.2076L37.5827 11.2075C37.0244 10.3683 36.2418 9.69112 35.3204 9.26176L35.3202 9.2619C34.6152 8.93342 33.829 8.75 33 8.75H11C10.1735 8.75 9.38967 8.93228 8.68638 9.25884ZM11.7499 11.75L22.0052 20.0893L32.2605 11.75H11.7499Z" />
</svg>
