<svg width="40" height="40" viewBox="0 0 40 40" fill="current" xmlns="http://www.w3.org/2000/svg">
<path d="M21.3493 2.07973L20.0282 1.06355L20.0282 1.06355L21.3493 2.07973ZM16.7541 37.1913L15.0923 37.0635L16.7541 37.1913ZM18.6512 37.919L19.9723 38.9352L19.9723 38.9351L18.6512 37.919ZM23.2464 2.80735L24.9082 2.93518L24.9082 2.93517L23.2464 2.80735ZM22.1942 16.4866L23.8559 16.6144L22.1942 16.4866ZM17.8063 23.5121L16.1446 23.3843L17.8063 23.5121ZM34.7933 16.9343L36.1143 17.9505L34.7933 16.9343ZM34.6612 16.666V14.9993V16.666ZM22.6703 3.09592C22.5555 3.2452 22.3778 3.33268 22.1895 3.33268V-0.000651002C21.3429 -0.000651002 20.5444 0.392547 20.0282 1.06355L22.6703 3.09592ZM6.52827 24.0806L22.6703 3.09592L20.0282 1.06355L3.88619 22.0482L6.52827 24.0806ZM17.6402 21.666H5.33934V24.9993H17.6402V21.666ZM18.4159 37.3192L19.4681 23.64L16.1446 23.3843L15.0923 37.0635L18.4159 37.3192ZM17.811 36.666C18.1644 36.666 18.443 36.9668 18.4159 37.3192L15.0923 37.0635C14.9705 38.6472 16.2227 39.9993 17.811 39.9993V36.666ZM17.3302 36.9028C17.445 36.7535 17.6227 36.666 17.811 36.666V39.9993C18.6576 39.9993 19.4561 39.6061 19.9723 38.9352L17.3302 36.9028ZM33.4722 15.9181L17.3302 36.9028L19.9723 38.9351L36.1143 17.9505L33.4722 15.9181ZM22.3603 18.3327L34.6612 18.3327L34.6612 14.9993L22.3603 14.9993V18.3327ZM21.5846 2.67952L20.5324 16.3587L23.8559 16.6144L24.9082 2.93518L21.5846 2.67952ZM22.1895 3.33268C21.8361 3.33268 21.5575 3.03185 21.5846 2.67952L24.9082 2.93517C25.03 1.35153 23.7778 -0.000651002 22.1895 -0.000651002V3.33268ZM22.3603 14.9993C23.2341 14.9993 23.9229 15.7432 23.8559 16.6144L20.5324 16.3587C20.4505 17.4235 21.2924 18.3327 22.3603 18.3327V14.9993ZM17.6402 24.9993C16.7664 24.9993 16.0776 24.2555 16.1446 23.3843L19.4681 23.64C19.55 22.5752 18.7081 21.666 17.6402 21.666V24.9993ZM36.1143 17.9505C37.0417 16.7449 36.1822 14.9993 34.6612 14.9993L34.6612 18.3327C33.4167 18.3327 32.7134 16.9045 33.4722 15.9181L36.1143 17.9505ZM3.88619 22.0482C2.95878 23.2538 3.81827 24.9993 5.33934 24.9993V21.666C6.58385 21.666 7.28706 23.0942 6.52827 24.0806L3.88619 22.0482Z"/>
</svg>
