<svg width="40" height="40" viewBox="0 0 40 40" fill="currentColor" xmlns="http://www.w3.org/2000/svg">
<path fill-rule="evenodd" clip-rule="evenodd" d="M19.4148 1.77311C19.7921 1.63162 20.2079 1.63162 20.5852 1.77311L33.9185 6.77311C34.569 7.01705 35 7.63892 35 8.33366V20.0003C35 25.7444 31.1971 30.3342 27.7642 33.338C26.0127 34.8705 24.2691 36.0684 22.9667 36.8824C22.3137 37.2905 21.7672 37.6049 21.3801 37.8192C21.1865 37.9264 21.0324 38.0087 20.9245 38.0653C20.8705 38.0937 20.828 38.1156 20.7979 38.131L20.7621 38.1493L20.7513 38.1547L20.7477 38.1565C20.7477 38.1565 20.7454 38.1577 20 36.667C19.2546 38.1577 19.2536 38.1572 19.2536 38.1572L19.2487 38.1547L19.2379 38.1493L19.2021 38.131C19.172 38.1156 19.1295 38.0937 19.0755 38.0653C18.9676 38.0087 18.8135 37.9264 18.6199 37.8192C18.2328 37.6049 17.6863 37.2905 17.0333 36.8824C15.7309 36.0684 13.9873 34.8705 12.2358 33.338C8.80291 30.3342 5 25.7444 5 20.0003V8.33366C5 7.63892 5.43095 7.01705 6.08146 6.77311L19.4148 1.77311ZM20 36.667L19.2536 38.1572C19.7228 38.3918 20.2761 38.3923 20.7454 38.1577L20 36.667ZM20 34.7716C20.3194 34.5906 20.7278 34.3508 21.2 34.0557C22.3976 33.3073 23.9873 32.2135 25.5692 30.8294C28.8029 27.9998 31.6667 24.2563 31.6667 20.0003V9.48866L20 5.11366L8.33333 9.48866V20.0003C8.33333 24.2563 11.1971 27.9998 14.4308 30.8294C16.0127 32.2135 17.6024 33.3073 18.8 34.0557C19.2722 34.3508 19.6806 34.5906 20 34.7716Z"/>
<path d="M20 13.333C21.841 13.333 23.3333 14.8254 23.3333 16.6663C23.3333 17.8994 22.6638 18.976 21.6685 19.5527L21.6671 24.9999C21.6668 25.9203 20.9206 26.6663 20.0002 26.6663V26.6663C19.0796 26.6663 18.3333 25.9201 18.3333 24.9995L18.3331 19.5537C17.337 18.9773 16.6666 17.9001 16.6666 16.6663C16.6666 14.8254 18.159 13.333 20 13.333Z"/>
</svg>
