<svg width="34" height="34" viewBox="0 0 34 34" fill="current" xmlns="http://www.w3.org/2000/svg">
<path fill-rule="evenodd" clip-rule="evenodd" d="M6.99965 10.335C6.99965 4.81212 11.4768 0.334961 16.9996 0.334961C22.5225 0.334961 26.9996 4.81212 26.9996 10.335V12H28.6659C31.4273 12 33.6659 14.2386 33.6659 17V28.6667C33.6659 31.4281 31.4273 33.6667 28.6659 33.6667H5.33252C2.5711 33.6667 0.33252 31.4281 0.33252 28.6667V17C0.33252 14.2386 2.57109 12 5.33252 12H6.99965V10.335ZM10.333 12H23.6663V10.335C23.6663 6.65306 20.6815 3.66829 16.9996 3.66829C13.3178 3.66829 10.333 6.65306 10.333 10.335V12ZM5.33252 15.3333C4.41205 15.3333 3.66585 16.0795 3.66585 17V28.6667C3.66585 29.5871 4.41204 30.3333 5.33252 30.3333H28.6659C29.5863 30.3333 30.3325 29.5871 30.3325 28.6667V17C30.3325 16.0795 29.5863 15.3333 28.6659 15.3333H5.33252Z"/>
</svg>
